<?xml version="1.0" encoding="UTF-8"?><svg id="Calque_2" xmlns="http://www.w3.org/2000/svg" xmlns:xlink="http://www.w3.org/1999/xlink" viewBox="0 0 197 146.38"><defs><style>.cls-1{fill:#000;}.cls-1,.cls-2,.cls-3,.cls-4,.cls-5{stroke-width:0px;}.cls-6{fill:none;stroke:#000;stroke-miterlimit:10;}.cls-2{fill:url(#Dégradé_sans_nom_496);}.cls-3{fill:url(#Dégradé_sans_nom_504);}.cls-4{fill:url(#Dégradé_sans_nom_476);}.cls-5{fill:url(#Dégradé_sans_nom_518);}</style><radialGradient id="Dégradé_sans_nom_476" cx="153.89" cy="42.99" fx="153.89" fy="42.99" r="43.05" gradientUnits="userSpaceOnUse"><stop offset="0" stop-color="#ffe53f"/><stop offset=".46" stop-color="#ffe43f"/><stop offset=".56" stop-color="#ffdc38"/><stop offset=".73" stop-color="#ffc627"/><stop offset=".92" stop-color="#ffa30c"/><stop offset="1" stop-color="#ff9300"/></radialGradient><radialGradient id="Dégradé_sans_nom_496" cx="153.89" cy="42.99" fx="153.89" fy="42.99" r="34.73" gradientUnits="userSpaceOnUse"><stop offset=".69" stop-color="#ffa215"/><stop offset=".77" stop-color="#ffa517"/><stop offset=".84" stop-color="#ffb11e"/><stop offset=".92" stop-color="#ffc52b"/><stop offset=".99" stop-color="#ffe13c"/><stop offset="1" stop-color="#ffe53f"/></radialGradient><radialGradient id="Dégradé_sans_nom_504" cx="153.89" cy="42.99" fx="153.89" fy="42.99" r="26.17" gradientUnits="userSpaceOnUse"><stop offset=".37" stop-color="#ff902a"/><stop offset=".52" stop-color="#ff9327"/><stop offset=".65" stop-color="#ff9d21"/><stop offset=".76" stop-color="#ffad15"/><stop offset=".86" stop-color="#ffc505"/><stop offset=".89" stop-color="#ffce00"/></radialGradient><radialGradient id="Dégradé_sans_nom_518" cx="153.89" cy="42.99" fx="153.89" fy="42.99" r="19.35" gradientUnits="userSpaceOnUse"><stop offset="0" stop-color="#fff72a"/><stop offset=".24" stop-color="#ffe72a"/><stop offset=".65" stop-color="#ffc42a"/></radialGradient></defs><g id="Calque_1-2"><path class="cls-1" d="M8.34,109.11c.6-1.52,1-3.18,1-4.81,0-.13-.03-.76-.03-.89-.26-1.18-.87-2.13-2.15-2.21h-.13c-.5-.03-.81-.05-.81-.21,0-.08.08-.18.32-.18,5.78,0,9.91,0,14.98.05,1.52.16,2.36,1.26,2.79,2.68.05.24.08.47.08.71,0,1.08-.47,2.23-.47,3.39,0,.21.1.68.1,1.08,0,.29-.05.5-.24.5-2.84,0-3.18-3.18-4.18-5.04-.92-1.71-2.29-2.79-4.13-2.79-.34,0-.71.05-1.1.13,1.08,1.05,1.47,3.07,1.47,4.49,0,.92-.24,1.79-.24,2.68,0,.18.21.21.63.21.97,0,1.71-.58,1.71-1.58,0-.84-.21-1.5-.6-2.23-.1-.18-.13-.24-.13-.26,0-.1.1-.21.26-.21s.16.05.29.21c.68.97.97,1.79.97,3,0,.74-.08,1.47-.08,2.21,0,.58.24,1.42.24,2.13,0,.79-.29,1.47-1.52,1.55-.11-.05-.16-.21-.16-.37,0-.34.16-.76.16-.87,0-1.1-.89-2-2.02-2-.26,0-.32,1.5-.32,2.1,0,1.42.58,2.76.58,4.18,0,1.16-.29,2.52-1.55,2.86-.21.05-.81.18-4.86.18-.39,0-.92-.21-1.31-.39-1.42-.71-1.6-2.23-1.6-3.68,0-2.39,1.18-4.44,2.08-6.62Z"/><path class="cls-1" d="M26,113.78c0-3.07,2.31-6.2,2.31-9.7-.08-1.08-.26-2.39-1.47-2.86-.13-.05-.26-.08-1.23-.08-.18,0-.24-.11-.24-.18,0-.13.03-.26.16-.26.95,0,5.12,0,6.94-.03.29.05,1.16,1.52,1.29,1.76.63,1.02.84,2.34.84,3.73,0,2.94-.95,6.36-.95,8.57,0,1.42.39,2.34,1.68,2.34,3.13,0,4.31-4.89,4.31-7.54,0-1.58-.24-3.6-.71-5.36-.29-1.05-.68-2.13-1.55-2.76-.5-.34-.81-.24-1.21-.34-.05-.05-.05-.26-.05-.29,0-.08.21-.11.55-.11.76,0,2.18.03,3.39.03.37,0,.68-.03,1.1-.03.32,0,.68.18.68.37,0,.03,0,.05-.03.08-.03.03-.05.03-1.16.03-.37,0-1.13.37-1.29,1.37v.1c0,1.18,1.87,5.73,1.87,8.8,0,1.02-.13,2.05-.45,3.02-1.02,3.23-3.71,5.57-6.99,5.57-5.65,0-7.8-1.26-7.8-6.23Z"/><path class="cls-1" d="M45.46,103.64c-.05,0-.1.05-.13.13-.24,1.55-1,8.22-1.16,9.7,0,.92.16,1.81.45,2.73.18.63.53,1.6.53,2.34,0,.68-.87,1.08-1.66,1.08-1.44,0-1.55-1.29-1.55-2.58,0-1.89.34-4.55.79-6.04.53-1.84,1.84-5.2,1.84-7.17,0-1.18-.39-2.29-1.55-2.63-.24-.08-.68.03-.71-.32,0-.1.21-.13.45-.13,1.31,0,2.6-.05,4.18-.05h1.94c1.31,0,2.21,1.84,2.76,2.97.97,2.36,1.37,4.33,2.31,6.67.13.32.37.81.66,1.05.26-2.42,1.87-3.86,1.87-6.36,0-1.08-.26-2.23-1.02-3.05-.53-.55-1.08-.74-1.08-.89,0-.26.1-.39.42-.39h1.39c.47,0,.95,0,1.44.05.13.03.13.26.13.34,0,.32-.24.37-.45.63-.26.29-.39.74-.39,1.24.32,1.31.53,2.6.53,3.97,0,1.68-.66,3.28-.66,5.04,0,.16.03.29.03.45.05,1.05.16,1.97.63,2.97.05.13.63,1.21.71,1.34.18.37.29.87.29,1.34,0,.45-.08.89-.29,1.24-.16.26-.63.42-.92.45-.95.11-1.89.16-2.84.16-1,0-2.02-.05-3.02-.21-.5-.08-.97-.42-1.29-.79-2.15-2.26-2.73-4.52-3.21-7.38-.24-1.5-.16-6.25-1.42-7.88Z"/><path class="cls-1" d="M59.63,116.47c0-1.16.26-2.31.37-2.79.03-.11.05-.18.05-.21.26-1.21,1-2.47,1.42-3.6.6-1.58,1.18-3.34,1.18-5.04v-.16c0-.81,0-1.76-.34-2.52-.13-.29-.66-.76-.66-.95,0-.5.58-.6,1.18-.6.68,0,1.29-.03,1.84-.03,1.94,0,3.23,0,3.94,2.47.34,1.21.5,2.34.5,3.55,0,.76-.05,1.52-.05,2.31,4.6-3.28,6.33-4.76,6.33-6.15,0-.58-.24-1.13-.79-1.37-.21-.11-.45-.13-.68-.13-1.37,0-1.76-.03-1.76-.24,0-.16.05-.26.18-.26h3.31c.47,0,.95-.03,2.47-.03.34,0,.58.03.58.13,0,.18-.05.26-.34.31-.53,0-1.52.74-1.87,1.6-1.42,3.6-2.23,4.33-4.02,6.38,1.76.37,4.97,1.08,5.65,2.73,1.37,3.31,2.52,5.57,2.52,6.73,0,.81-.87,1.1-2.42,1.1h-4.57c-1.16,0-2.6-1.6-2.6-2.76,0-1.02.08-2.08.08-3.23,0-1-.63-2.13-1.71-2.13-.6,0-.95.45-.95,1.37,0,1.16.92,2.6.92,4.02,0,1.13-.71,2.18-1.81,2.6-.26.13-1,.16-1.87.16-1.31,0-2.89-.08-3.63-.08-2,0-2.47-1.63-2.47-3.21Z"/><path class="cls-1" d="M15.95,142.36l-.02.14c-.13,1.89.57,2.91,2.16,2.91,1.28,0,2.15-.88,2.45-2.41.31-1.55-.06-2.81-1.75-4.32-1.78-1.59-2.52-2.83-2.11-4.87.34-1.69,1.4-2.84,3.24-2.84,2.54,0,3.15,1.95,2.88,3.78l-.03.16h-1.06l.03-.17c.16-1.36-.15-2.8-1.91-2.8-1.23,0-1.86.82-2.08,2.01-.27,1.48.15,2.41,1.72,3.82,2.12,1.89,2.6,3.33,2.16,5.38-.41,1.89-1.55,3.23-3.62,3.23-2.73,0-3.38-1.89-3.15-3.91l.02-.11h1.08Z"/><path class="cls-1" d="M24.98,140.66c-.14.7-.28,1.56-.32,2.17-.12,1.55.21,2.58,1.48,2.58s1.82-1.08,2.1-1.96l.02-.11h1.06l-.03.13c-.33,1.15-1.1,2.91-3.29,2.91-2.8,0-2.71-2.87-2.2-5.24l.32-1.53c.64-2.94,1.8-4.78,3.9-4.78,2.41,0,2.82,2.04,2.26,4.45-.04.17-.27,1.19-.31,1.38h-4.98ZM29.1,139.74c.12-.52.28-1.3.31-1.77.1-1.2-.24-2.18-1.51-2.18-1.43,0-2.18,1.63-2.59,3.37l-.12.58h3.92Z"/><path class="cls-1" d="M32.07,143.16l-.03.15c-.13,1.31.43,2.12,1.66,2.12,1.06,0,1.58-.6,1.78-1.59.28-1.33-.13-2.14-1.4-3.12-1.57-1.22-2.08-2.05-1.75-3.66.3-1.49,1.33-2.22,2.65-2.22,2.09,0,2.59,1.58,2.4,2.92l-.03.17h-1.03l.03-.2c.09-.98-.17-1.95-1.45-1.95-.71,0-1.32.39-1.52,1.4-.23,1.12.13,1.71,1.29,2.61,1.86,1.43,2.25,2.49,1.87,4.22-.36,1.59-1.43,2.36-2.95,2.36-2.09,0-2.83-1.42-2.59-3.13l.02-.08h1.05Z"/><path class="cls-1" d="M39.09,143.16l-.03.15c-.13,1.31.43,2.12,1.66,2.12,1.06,0,1.58-.6,1.78-1.59.28-1.33-.13-2.14-1.4-3.12-1.57-1.22-2.08-2.05-1.75-3.66.3-1.49,1.33-2.22,2.65-2.22,2.09,0,2.59,1.58,2.4,2.92l-.03.17h-1.03l.03-.2c.09-.98-.17-1.95-1.45-1.95-.71,0-1.32.39-1.52,1.4-.23,1.12.13,1.71,1.29,2.61,1.86,1.43,2.25,2.49,1.87,4.22-.36,1.59-1.43,2.36-2.95,2.36-2.09,0-2.83-1.42-2.59-3.13l.02-.08h1.05Z"/><path class="cls-1" d="M47.39,135.02h1.08l-2.37,11.17h-1.08l2.37-11.17ZM48.37,130.47h1.08l-.47,2.2h-1.08l.47-2.2Z"/><path class="cls-1" d="M56.05,139.84l-.36,1.72c-.56,2.77-1.63,4.82-3.97,4.82s-3.02-2.08-2.35-5.13l.38-1.81c.67-3.05,1.98-4.61,3.88-4.61,2.53,0,2.97,2.27,2.43,5ZM50.86,139.5l-.4,1.86c-.54,2.54-.14,4.05,1.36,4.05s2.25-1.52,2.74-3.8l.39-1.81c.43-2.01.33-3.97-1.42-3.97-1.21,0-2.16,1.26-2.68,3.67Z"/><path class="cls-1" d="M58.52,138.44c.48-2.26.63-3.04.69-3.42h1.05c-.04.28-.14.87-.26,1.44.54-.93,1.32-1.62,2.63-1.62s2.43.85,1.92,3.22l-1.73,8.13h-1.08l1.69-7.97c.3-1.43.07-2.37-1.19-2.37-1.36,0-2.31,1.07-2.84,3.53l-1.44,6.81h-1.09l1.65-7.76Z"/><path class="cls-1" d="M66.37,143.16l-.03.15c-.13,1.31.43,2.12,1.66,2.12,1.06,0,1.58-.6,1.78-1.59.28-1.33-.13-2.14-1.4-3.12-1.57-1.22-2.08-2.05-1.75-3.66.3-1.49,1.33-2.22,2.65-2.22,2.09,0,2.59,1.58,2.4,2.92l-.03.17h-1.03l.03-.2c.09-.98-.17-1.95-1.45-1.95-.71,0-1.32.39-1.52,1.4-.23,1.12.13,1.71,1.29,2.61,1.86,1.43,2.25,2.49,1.87,4.22-.36,1.59-1.43,2.36-2.95,2.36-2.09,0-2.83-1.42-2.59-3.13l.02-.08h1.05Z"/><path class="cls-1" d="M118.93,109.11c.6-1.52,1-3.18,1-4.81,0-.13-.03-.76-.03-.89-.26-1.18-.87-2.13-2.15-2.21h-.13c-.5-.03-.81-.05-.81-.21,0-.08.08-.18.32-.18,5.78,0,9.91,0,14.98.05,1.52.16,2.36,1.26,2.79,2.68.05.24.08.47.08.71,0,1.08-.47,2.23-.47,3.39,0,.21.1.68.1,1.08,0,.29-.05.5-.24.5-2.84,0-3.18-3.18-4.18-5.04-.92-1.71-2.29-2.79-4.13-2.79-.34,0-.71.05-1.1.13,1.08,1.05,1.47,3.07,1.47,4.49,0,.92-.24,1.79-.24,2.68,0,.18.21.21.63.21.97,0,1.71-.58,1.71-1.58,0-.84-.21-1.5-.6-2.23-.1-.18-.13-.24-.13-.26,0-.1.1-.21.26-.21s.16.05.29.21c.68.97.97,1.79.97,3,0,.74-.08,1.47-.08,2.21,0,.58.24,1.42.24,2.13,0,.79-.29,1.47-1.52,1.55-.11-.05-.16-.21-.16-.37,0-.34.16-.76.16-.87,0-1.1-.89-2-2.02-2-.26,0-.32,1.5-.32,2.1,0,1.42.58,2.76.58,4.18,0,1.16-.29,2.52-1.55,2.86-.21.05-.81.18-4.86.18-.39,0-.92-.21-1.31-.39-1.42-.71-1.6-2.23-1.6-3.68,0-2.39,1.18-4.44,2.08-6.62Z"/><path class="cls-1" d="M136.59,113.78c0-3.07,2.31-6.2,2.31-9.7-.08-1.08-.26-2.39-1.47-2.86-.13-.05-.26-.08-1.23-.08-.18,0-.24-.11-.24-.18,0-.13.03-.26.16-.26.95,0,5.12,0,6.94-.03.29.05,1.16,1.52,1.29,1.76.63,1.02.84,2.34.84,3.73,0,2.94-.95,6.36-.95,8.57,0,1.42.39,2.34,1.68,2.34,3.13,0,4.31-4.89,4.31-7.54,0-1.58-.24-3.6-.71-5.36-.29-1.05-.68-2.13-1.55-2.76-.5-.34-.81-.24-1.21-.34-.05-.05-.05-.26-.05-.29,0-.08.21-.11.55-.11.76,0,2.18.03,3.39.03.37,0,.68-.03,1.1-.03.32,0,.68.18.68.37,0,.03,0,.05-.03.08-.03.03-.05.03-1.16.03-.37,0-1.13.37-1.29,1.37v.1c0,1.18,1.87,5.73,1.87,8.8,0,1.02-.13,2.05-.45,3.02-1.02,3.23-3.71,5.57-6.99,5.57-5.65,0-7.8-1.26-7.8-6.23Z"/><path class="cls-1" d="M156.06,103.64c-.05,0-.1.05-.13.13-.24,1.55-1,8.22-1.16,9.7,0,.92.16,1.81.45,2.73.18.63.53,1.6.53,2.34,0,.68-.87,1.08-1.66,1.08-1.44,0-1.55-1.29-1.55-2.58,0-1.89.34-4.55.79-6.04.53-1.84,1.84-5.2,1.84-7.17,0-1.18-.39-2.29-1.55-2.63-.24-.08-.68.03-.71-.32,0-.1.21-.13.45-.13,1.31,0,2.6-.05,4.18-.05h1.94c1.31,0,2.21,1.84,2.76,2.97.97,2.36,1.37,4.33,2.31,6.67.13.32.37.81.66,1.05.26-2.42,1.87-3.86,1.87-6.36,0-1.08-.26-2.23-1.02-3.05-.53-.55-1.08-.74-1.08-.89,0-.26.1-.39.42-.39h1.39c.47,0,.95,0,1.44.05.13.03.13.26.13.34,0,.32-.24.37-.45.63-.26.29-.39.74-.39,1.24.32,1.31.53,2.6.53,3.97,0,1.68-.66,3.28-.66,5.04,0,.16.03.29.03.45.05,1.05.16,1.97.63,2.97.05.13.63,1.21.71,1.34.18.37.29.87.29,1.34,0,.45-.08.89-.29,1.24-.16.26-.63.42-.92.45-.95.11-1.89.16-2.84.16-1,0-2.02-.05-3.02-.21-.5-.08-.97-.42-1.29-.79-2.15-2.26-2.73-4.52-3.21-7.38-.24-1.5-.16-6.25-1.42-7.88Z"/><path class="cls-1" d="M170.22,116.47c0-1.16.26-2.31.37-2.79.03-.11.05-.18.05-.21.26-1.21,1-2.47,1.42-3.6.6-1.58,1.18-3.34,1.18-5.04v-.16c0-.81,0-1.76-.34-2.52-.13-.29-.66-.76-.66-.95,0-.5.58-.6,1.18-.6.68,0,1.29-.03,1.84-.03,1.94,0,3.23,0,3.94,2.47.34,1.21.5,2.34.5,3.55,0,.76-.05,1.52-.05,2.31,4.6-3.28,6.33-4.76,6.33-6.15,0-.58-.24-1.13-.79-1.37-.21-.11-.45-.13-.68-.13-1.37,0-1.76-.03-1.76-.24,0-.16.05-.26.18-.26h3.31c.47,0,.95-.03,2.47-.03.34,0,.58.03.58.13,0,.18-.05.26-.34.31-.53,0-1.52.74-1.87,1.6-1.42,3.6-2.23,4.33-4.02,6.38,1.76.37,4.97,1.08,5.65,2.73,1.37,3.31,2.52,5.57,2.52,6.73,0,.81-.87,1.1-2.42,1.1h-4.57c-1.16,0-2.6-1.6-2.6-2.76,0-1.02.08-2.08.08-3.23,0-1-.63-2.13-1.71-2.13-.6,0-.95.45-.95,1.37,0,1.16.92,2.6.92,4.02,0,1.13-.71,2.18-1.81,2.6-.26.13-1,.16-1.87.16-1.31,0-2.89-.08-3.63-.08-2,0-2.47-1.63-2.47-3.21Z"/><path class="cls-1" d="M126.54,142.36l-.02.14c-.13,1.89.57,2.91,2.16,2.91,1.28,0,2.15-.88,2.45-2.41.31-1.55-.06-2.81-1.75-4.32-1.78-1.59-2.52-2.83-2.11-4.87.34-1.69,1.4-2.84,3.24-2.84,2.54,0,3.15,1.95,2.88,3.78l-.03.16h-1.06l.03-.17c.16-1.36-.15-2.8-1.91-2.8-1.23,0-1.86.82-2.08,2.01-.27,1.48.15,2.41,1.72,3.82,2.12,1.89,2.6,3.33,2.16,5.38-.41,1.89-1.55,3.23-3.62,3.23-2.73,0-3.38-1.89-3.15-3.91l.02-.11h1.08Z"/><path class="cls-1" d="M135.58,140.66c-.14.7-.28,1.56-.32,2.17-.12,1.55.21,2.58,1.48,2.58s1.82-1.08,2.1-1.96l.02-.11h1.06l-.03.13c-.33,1.15-1.1,2.91-3.29,2.91-2.8,0-2.71-2.87-2.2-5.24l.32-1.53c.64-2.94,1.8-4.78,3.9-4.78,2.41,0,2.82,2.04,2.26,4.45-.04.17-.27,1.19-.31,1.38h-4.98ZM139.7,139.74c.12-.52.28-1.3.31-1.77.1-1.2-.24-2.18-1.51-2.18-1.43,0-2.18,1.63-2.59,3.37l-.12.58h3.92Z"/><path class="cls-1" d="M142.67,143.16l-.03.15c-.13,1.31.43,2.12,1.66,2.12,1.06,0,1.58-.6,1.78-1.59.28-1.33-.13-2.14-1.4-3.12-1.57-1.22-2.08-2.05-1.75-3.66.3-1.49,1.33-2.22,2.65-2.22,2.09,0,2.59,1.58,2.4,2.92l-.03.17h-1.03l.03-.2c.09-.98-.17-1.95-1.45-1.95-.71,0-1.32.39-1.52,1.4-.23,1.12.13,1.71,1.29,2.61,1.86,1.43,2.25,2.49,1.87,4.22-.36,1.59-1.43,2.36-2.95,2.36-2.09,0-2.83-1.42-2.59-3.13l.02-.08h1.05Z"/><path class="cls-1" d="M149.69,143.16l-.03.15c-.13,1.31.43,2.12,1.66,2.12,1.06,0,1.58-.6,1.78-1.59.28-1.33-.13-2.14-1.4-3.12-1.57-1.22-2.08-2.05-1.75-3.66.3-1.49,1.33-2.22,2.65-2.22,2.09,0,2.59,1.58,2.4,2.92l-.03.17h-1.03l.03-.2c.09-.98-.17-1.95-1.45-1.95-.71,0-1.32.39-1.52,1.4-.23,1.12.13,1.71,1.29,2.61,1.86,1.43,2.25,2.49,1.87,4.22-.36,1.59-1.43,2.36-2.95,2.36-2.09,0-2.83-1.42-2.59-3.13l.02-.08h1.05Z"/><path class="cls-1" d="M157.99,135.02h1.08l-2.37,11.17h-1.08l2.37-11.17ZM158.97,130.47h1.08l-.47,2.2h-1.08l.47-2.2Z"/><path class="cls-1" d="M166.65,139.84l-.36,1.72c-.56,2.77-1.63,4.82-3.97,4.82s-3.02-2.08-2.35-5.13l.38-1.81c.67-3.05,1.98-4.61,3.88-4.61,2.53,0,2.97,2.27,2.43,5ZM161.45,139.5l-.4,1.86c-.54,2.54-.14,4.05,1.36,4.05s2.25-1.52,2.74-3.8l.39-1.81c.43-2.01.33-3.97-1.42-3.97-1.21,0-2.16,1.26-2.68,3.67Z"/><path class="cls-1" d="M169.12,138.44c.48-2.26.63-3.04.69-3.42h1.05c-.04.28-.14.87-.26,1.44.54-.93,1.32-1.62,2.63-1.62s2.43.85,1.92,3.22l-1.73,8.13h-1.08l1.69-7.97c.3-1.43.07-2.37-1.19-2.37-1.36,0-2.31,1.07-2.84,3.53l-1.44,6.81h-1.09l1.65-7.76Z"/><path class="cls-1" d="M176.97,143.16l-.03.15c-.13,1.31.43,2.12,1.66,2.12,1.06,0,1.58-.6,1.78-1.59.28-1.33-.13-2.14-1.4-3.12-1.57-1.22-2.08-2.05-1.75-3.66.3-1.49,1.33-2.22,2.65-2.22,2.09,0,2.59,1.58,2.4,2.92l-.03.17h-1.03l.03-.2c.09-.98-.17-1.95-1.45-1.95-.71,0-1.32.39-1.52,1.4-.23,1.12.13,1.71,1.29,2.61,1.86,1.43,2.25,2.49,1.87,4.22-.36,1.59-1.43,2.36-2.95,2.36-2.09,0-2.83-1.42-2.59-3.13l.02-.08h1.05Z"/><path class="cls-6" d="M55.35,58.82c30.68,37.34-54.79,37.34-24.11,0-35.86,37.34-40.11,33.1-2.66-2.66C-8.86,86.74-8.86,1.57,28.59,32.14-8.86-3.62-4.62-7.86,31.24,29.48.56-7.86,86.03-7.86,55.35,29.48c35.86-37.34,40.11-33.1,2.66,2.66,37.45-30.58,37.45,54.6,0,24.02,37.45,35.76,33.21,40-2.66,2.66Z"/><path class="cls-6" d="M53.02,55.99c24.75,30.12-44.19,30.12-19.44,0-28.93,30.12-32.35,26.7-2.14-2.14C1.23,78.51,1.23,9.8,31.43,34.47,1.23,5.62,4.65,2.2,33.57,32.32c-24.75-30.12,44.19-30.12,19.44,0,28.93-30.12,32.35-26.7,2.14,2.14,30.21-24.66,30.21,44.04,0,19.38,30.21,28.84,26.78,32.26-2.14,2.14Z"/><path class="cls-6" d="M50.62,53.07c18.65,22.7-33.3,22.7-14.65,0-21.8,22.7-24.38,20.12-1.62-1.62-22.76,18.58-22.76-33.19,0-14.6-22.76-21.74-20.18-24.31,1.62-1.62-18.65-22.7,33.3-22.7,14.65,0,21.8-22.7,24.38-20.12,1.62,1.62,22.76-18.58,22.76,33.19,0,14.6,22.76,21.74,20.18,24.31-1.62,1.62Z"/><path class="cls-6" d="M48.71,50.75c13.79,16.78-24.62,16.78-10.83,0-16.12,16.78-18.03,14.88-1.19-1.19-16.83,13.74-16.83-24.54,0-10.8-16.83-16.07-14.92-17.98,1.19-1.19-13.79-16.78,24.62-16.78,10.83,0,16.12-16.78,18.03-14.88,1.19,1.19,16.83-13.74,16.83,24.54,0,10.8,16.83,16.07,14.92,17.98-1.19,1.19Z"/><path class="cls-4" d="M166.03,57.77c30.91,37.62-55.19,37.62-24.28,0-36.13,37.62-40.4,33.35-2.68-2.68-37.72,30.8-37.72-55,0-24.2-37.72-36.02-33.45-40.29,2.68-2.68-30.91-37.62,55.19-37.62,24.28,0,36.13-37.62,40.4-33.35,2.68,2.68,37.72-30.8,37.72,55,0,24.2,37.72,36.02,33.45,40.29-2.68,2.68Z"/><path class="cls-2" d="M163.69,54.91c24.93,30.34-44.52,30.34-19.59,0-29.14,30.34-32.59,26.9-2.16-2.16-30.43,24.84-30.43-44.37,0-19.52-30.43-29.06-26.98-32.5,2.16-2.16-24.93-30.34,44.52-30.34,19.59,0,29.14-30.34,32.59-26.9,2.16,2.16,30.43-24.84,30.43,44.37,0,19.52,30.43,29.06,26.98,32.5-2.16,2.16Z"/><path class="cls-3" d="M161.27,51.97c18.79,22.86-33.55,22.86-14.76,0-21.96,22.86-24.56,20.27-1.63-1.63-22.93,18.72-22.93-33.43,0-14.71-22.93-21.9-20.33-24.49,1.63-1.63-18.79-22.86,33.55-22.86,14.76,0,21.96-22.86,24.56-20.27,1.63,1.63,22.93-18.72,22.93,33.43,0,14.71,22.93,21.9,20.33,24.49-1.63,1.63Z"/><path class="cls-5" d="M159.35,49.63c13.89,16.91-24.81,16.91-10.91,0-16.24,16.91-18.16,14.99-1.2-1.2-16.95,13.84-16.95-24.72,0-10.88-16.95-16.19-15.03-18.11,1.2-1.2-13.89-16.91,24.81-16.91,10.91,0,16.24-16.91,18.16-14.99,1.2,1.2,16.95-13.84,16.95,24.72,0,10.88,16.95,16.19,15.03,18.11-1.2,1.2Z"/></g></svg>