<?xml version="1.0" encoding="UTF-8"?><svg id="Calque_1" xmlns="http://www.w3.org/2000/svg" xmlns:xlink="http://www.w3.org/1999/xlink" viewBox="0 0 258.57 189.44"><defs><style>.cls-1{fill:url(#Dégradé_sans_nom_703);}.cls-1,.cls-2,.cls-3,.cls-4,.cls-5{stroke-width:0px;}.cls-2{fill:#000;}.cls-6{fill:none;stroke:#000;stroke-miterlimit:10;}.cls-3{fill:url(#Dégradé_sans_nom_697);}.cls-4{fill:url(#Dégradé_sans_nom_706);}.cls-5{fill:url(#Dégradé_sans_nom_625);}</style><radialGradient id="Dégradé_sans_nom_706" cx="195.91" cy="62.49" fx="195.91" fy="62.49" r="62.58" gradientUnits="userSpaceOnUse"><stop offset=".54" stop-color="#3fffdc"/><stop offset=".55" stop-color="#3afcc5"/><stop offset=".57" stop-color="#31f89c"/><stop offset=".59" stop-color="#29f477"/><stop offset=".61" stop-color="#23f156"/><stop offset=".64" stop-color="#1dee3b"/><stop offset=".67" stop-color="#18ec25"/><stop offset=".71" stop-color="#15eb14"/><stop offset=".76" stop-color="#12e908"/><stop offset=".82" stop-color="#11e901"/><stop offset="1" stop-color="#11e900"/></radialGradient><radialGradient id="Dégradé_sans_nom_703" cx="195.91" cy="62.49" fx="195.91" fy="62.49" r="50.47" gradientUnits="userSpaceOnUse"><stop offset="0" stop-color="#11e900"/><stop offset=".12" stop-color="#11e902"/><stop offset=".21" stop-color="#13ea0c"/><stop offset=".29" stop-color="#16eb1c"/><stop offset=".37" stop-color="#1bee33"/><stop offset=".44" stop-color="#21f150"/><stop offset=".5" stop-color="#29f474"/><stop offset=".57" stop-color="#32f89f"/><stop offset=".63" stop-color="#3cfdcf"/><stop offset=".64" stop-color="#3fffdc"/></radialGradient><radialGradient id="Dégradé_sans_nom_697" cx="195.91" cy="62.49" fx="195.91" fy="62.49" r="38.03" gradientUnits="userSpaceOnUse"><stop offset=".43" stop-color="#3fffdc"/><stop offset=".45" stop-color="#3bfdcd"/><stop offset=".56" stop-color="#2ff78f"/><stop offset=".66" stop-color="#24f25c"/><stop offset=".75" stop-color="#1bee34"/><stop offset=".84" stop-color="#15eb17"/><stop offset=".91" stop-color="#12e906"/><stop offset=".96" stop-color="#11e900"/></radialGradient><radialGradient id="Dégradé_sans_nom_625" cx="195.91" cy="62.49" fx="195.91" fy="62.49" r="28.12" gradientUnits="userSpaceOnUse"><stop offset="0" stop-color="#11e900"/><stop offset=".08" stop-color="#1cee38"/><stop offset=".16" stop-color="#27f36a"/><stop offset=".24" stop-color="#2ff793"/><stop offset=".31" stop-color="#36fab2"/><stop offset=".39" stop-color="#3bfdc9"/><stop offset=".46" stop-color="#3efed7"/><stop offset=".52" stop-color="#3fffdc"/></radialGradient></defs><path class="cls-2" d="M165.57,124.8v3.03c0,.23-.18.41-.41.41s-.41-.18-.41-.41v-8.95c0-.28.2-.47.46-.47h4.6c1.73,0,3.06,1.29,3.06,2.96v.48c0,1.67-1.33,2.96-3.06,2.96h-4.23ZM172.04,121.37c0-1.21-.98-2.16-2.25-2.16h-4.21v4.8h4.21c1.27,0,2.25-.95,2.25-2.16v-.48Z"/><path class="cls-2" d="M181.21,123.48c0,.23-.18.41-.41.41s-.41-.18-.41-.41v-.72c0-1.1-.81-1.93-1.95-1.93h-3.35v7c0,.23-.18.41-.41.41s-.41-.18-.41-.41v-7.34c0-.26.18-.46.46-.46h3.72c1.59,0,2.77,1.18,2.77,2.73v.72Z"/><path class="cls-2" d="M184.17,128.15c-1.39,0-2.38-1.13-2.38-2.38s.98-2.36,2.38-2.36h3.46c.21,0,.4.18.4.4s-.18.4-.4.4h-3.46c-.92,0-1.55.77-1.55,1.56s.63,1.58,1.55,1.58h4.86v-4.46c0-1.26-.78-2.07-2.04-2.07h-4c-.21,0-.4-.18-.4-.4s.18-.4.4-.4h4c1.7,0,2.87,1.16,2.87,2.86v4.79c0,.28-.18.46-.46.46h-5.22Z"/><path class="cls-2" d="M195.09,128.15c-2.24,0-3.8-1.62-3.8-3.78v-.55c0-2.16,1.56-3.78,3.8-3.78h3.49c.21,0,.4.18.4.4s-.18.4-.4.4h-3.48c-1.76,0-2.99,1.29-2.99,2.99v.55c0,1.72,1.22,2.99,2.99,2.99h3.48c.21,0,.4.18.4.4s-.18.4-.4.4h-3.49Z"/><path class="cls-2" d="M204.24,128.15c-1.52,0-2.63-1.12-2.63-2.65v-4.67h-1.55c-.21,0-.4-.18-.4-.4s.18-.4.4-.4h1.55v-2.04c0-.23.18-.41.41-.41s.41.18.41.41v2.04h3.94c.21,0,.4.18.4.4s-.18.4-.4.4h-3.94v4.67c0,1.1.74,1.85,1.81,1.85h2.13c.21,0,.4.18.4.4s-.18.4-.4.4h-2.13Z"/><path class="cls-2" d="M207.82,117.37c0-.32.26-.58.58-.58s.58.26.58.58-.26.58-.58.58-.58-.26-.58-.58ZM207.98,120.36c0-.23.18-.41.41-.41s.41.18.41.41v7.48c0,.23-.18.41-.41.41s-.41-.18-.41-.41v-7.48Z"/><path class="cls-2" d="M214.1,128.15c-2.24,0-3.8-1.62-3.8-3.78v-.55c0-2.16,1.56-3.78,3.8-3.78h3.49c.21,0,.4.18.4.4s-.18.4-.4.4h-3.48c-1.76,0-2.99,1.29-2.99,2.99v.55c0,1.72,1.23,2.99,2.99,2.99h3.48c.21,0,.4.18.4.4s-.18.4-.4.4h-3.49Z"/><path class="cls-2" d="M222.53,128.15c-2.24,0-3.8-1.62-3.8-3.78v-.55c0-2.16,1.56-3.78,3.8-3.78h2.51c1.47,0,2.45,1.04,2.45,2.28s-.98,2.27-2.45,2.27h-3.63c-.21,0-.4-.18-.4-.4s.18-.4.4-.4h3.63c.98,0,1.62-.66,1.62-1.47s-.64-1.49-1.62-1.49h-2.5c-1.76,0-2.99,1.29-2.99,2.99v.55c0,1.72,1.23,2.99,2.99,2.99h3.88c.21,0,.4.18.4.4s-.18.4-.4.4h-3.89Z"/><path class="cls-2" d="M162.7,166.47s-1.41-.63-1.41-1.41v-8.39c0-1.16-.95-2.12-2.12-2.12h-7.05c-1.16,0-2.11.95-2.11,2.12v8.39c0,.78-.63,1.41-1.41,1.41,0,0-1.41-.63-1.41-1.41v-25.38c0-.78.63-1.41,1.41-1.41,0,0,1.41.63,1.41,1.41v4.23c0,1.16.95,2.12,2.11,2.12h7.05c1.16,0,2.12-.95,2.12-2.12v-4.23c0-.78.63-1.41,1.41-1.41,0,0,1.41.63,1.41,1.41v25.38c0,.78-.63,1.41-1.41,1.41Z"/><path class="cls-2" d="M181.49,166.47h-12.65c-1.16,0-2.12-.95-2.12-2.12v-23.9c0-1.16.95-2.08,2.12-2.08h12.65c1.16,0,2.08.92,2.08,2.08v23.9c0,1.16-.92,2.12-2.08,2.12ZM180.78,148.21c0-1.16-.95-2.11-2.11-2.11h-7.01c-1.16,0-2.11.95-2.11,2.11v13.32c0,1.2.95,2.12,2.11,2.12h7.01c1.16,0,2.11-.92,2.11-2.12v-13.32Z"/><path class="cls-2" d="M203.06,164.36c0,1.16-.95,2.12-2.12,2.12h-12.65c-1.16,0-2.12-.95-2.12-2.12v-24.6c0-.78.63-1.38,1.41-1.38,0,0,1.41.6,1.41,1.38v16.88c0,1.16.95,2.11,2.11,2.11h7.01c1.16,0,2.11-.95,2.11-2.11v-16.88c0-.78.63-1.38,1.41-1.38,0,0,1.41.6,1.41,1.38v24.6Z"/><path class="cls-2" d="M220.41,166.47h-13.36c-.78,0-1.41-.63-1.41-1.41s.63-1.41,1.41-1.41h5.6c1.16,0,2.11-.92,2.11-2.08v-6.38c0-1.16-.95-2.08-2.11-2.08l-4.9-.04c-1.16,0-2.12-.92-2.12-2.08v-10.54c0-1.16.95-2.08,2.12-2.08h10.68c.78,0,1.41.6,1.41,1.38s-.63,1.41-1.41,1.41h-7.9c-1.16,0-2.12.95-2.12,2.11v4.9c0,1.16.95,2.12,2.12,2.12h9.87c1.16,0,2.08.95,2.08,2.12v11.95c0,1.16-.92,2.12-2.08,2.12Z"/><path class="cls-2" d="M240.61,166.47h-13.39c-1.16,0-2.12-.95-2.12-2.12v-23.97c0-1.16.95-2.12,2.12-2.12h13.39c.78,0,1.41.63,1.41,1.41s-.63,1.41-1.41,1.41h-10.57c-1.16,0-2.11.95-2.11,2.11v6.34c0,1.16.95,2.12,2.11,2.12h10.57c.78,0,1.41.63,1.41,1.41s-.63,1.41-1.41,1.41h-5.64c-1.16,0-2.11.95-2.11,2.12v4.93c0,1.16.95,2.12,2.11,2.12h5.64c.78,0,1.41.63,1.41,1.41s-.63,1.41-1.41,1.41Z"/><path class="cls-2" d="M182.69,181.12c0-1.72-1.35-3.08-3.04-3.08h-3.27v9.46c0,.31-.25.56-.56.56s-.56-.25-.56-.56v-9.46h-6.23v9.46c0,.31-.25.56-.56.56s-.56-.25-.56-.56v-9.91c0-.35.25-.62.62-.62h11.11c2.32,0,4.16,1.84,4.16,4.16v6.37c0,.31-.25.56-.56.56s-.56-.25-.56-.56v-6.37Z"/><path class="cls-2" d="M190.51,187.93c-2.34,0-4.22-1.9-4.22-4.24v-6.29c0-.31.25-.56.56-.56s.56.25.56.56v6.31c0,1.72,1.39,3.14,3.1,3.14h1.88c1.72,0,3.12-1.43,3.12-3.14v-6.31c0-.31.25-.56.56-.56s.56.25.56.56v6.29c0,2.34-1.9,4.24-4.24,4.24h-1.88Z"/><path class="cls-2" d="M199.42,187.93c-.29,0-.54-.25-.54-.54s.25-.54.54-.54h6.37c1.2,0,2.07-.83,2.07-1.94s-.87-1.92-2.07-1.92h-4.06c-1.82,0-3.17-1.28-3.17-2.98s1.35-3.04,3.17-3.04h6.39c.29,0,.54.25.54.54s-.25.54-.54.54h-6.39c-1.18,0-2.05.85-2.05,1.97s.87,1.9,2.05,1.9h4.06c1.84,0,3.17,1.3,3.17,3s-1.32,3.02-3.17,3.02h-6.37Z"/><path class="cls-2" d="M210.74,173.36c0-.43.35-.79.79-.79s.79.35.79.79-.35.79-.79.79-.79-.35-.79-.79ZM210.97,177.4c0-.31.25-.56.56-.56s.56.25.56.56v10.1c0,.31-.25.56-.56.56s-.56-.25-.56-.56v-10.1Z"/><path class="cls-2" d="M219.23,187.93c-3.02,0-5.13-2.19-5.13-5.11v-.75c0-2.92,2.11-5.11,5.13-5.11h4.72c.29,0,.54.25.54.54s-.25.54-.54.54h-4.7c-2.38,0-4.04,1.74-4.04,4.04v.75c0,2.32,1.66,4.03,4.04,4.03h4.7c.29,0,.54.25.54.54s-.25.54-.54.54h-4.72Z"/><path class="cls-4" d="M247.25,124.97c-27.84-33.89-74.84-33.89-102.68,0,24.99-33.89,22.66-36.22-11.32-11.32,33.98-27.75,33.98-74.58,0-102.33,33.98,24.9,36.31,22.57,11.32-11.32,27.84,33.89,74.84,33.89,102.68,0-24.99,33.89-22.66,36.22,11.32,11.32-33.98,27.75-33.98,74.58,0,102.33-33.98-24.9-36.31-22.57-11.32,11.32Z"/><path class="cls-1" d="M237.32,112.89c-22.46-27.33-60.37-27.33-82.83,0,20.16-27.33,18.28-29.21-9.13-9.13,27.41-22.38,27.41-60.16,0-82.54,27.41,20.08,29.29,18.2,9.13-9.13,22.46,27.33,60.37,27.33,82.83,0-20.16,27.33-18.28,29.21,9.13,9.13-27.41,22.38-27.41,60.16,0,82.54-27.41-20.08-29.29-18.2-9.13,9.13Z"/><path class="cls-3" d="M227.11,100.47c-16.92-20.6-45.49-20.6-62.41,0,15.19-20.6,13.77-22.01-6.88-6.88,20.66-16.87,20.66-45.33,0-62.2,20.66,15.13,22.07,13.72,6.88-6.88,16.92,20.6,45.49,20.6,62.41,0-15.19,20.6-13.77,22.01,6.88,6.88-20.66,16.87-20.66,45.33,0,62.2-20.66-15.13-22.07-13.72-6.88,6.88Z"/><path class="cls-5" d="M218.98,90.57c-12.51-15.23-33.64-15.23-46.15,0,11.23-15.23,10.18-16.28-5.09-5.09,15.27-12.47,15.27-33.52,0-45.99,15.27,11.19,16.32,10.14,5.09-5.09,12.51,15.23,33.64,15.23,46.15,0-11.23,15.23-10.18,16.28,5.09,5.09-15.27,12.47-15.27,33.52,0,45.99-15.27-11.19-16.32-10.14-5.09,5.09Z"/><path class="cls-6" d="M107.21,120.03c-27.34-33.28-68.94-33.28-96.28,0,24.82-33.28,22.76-35.34-10.62-10.62C33.69,82.16,33.69,40.71.32,13.46c33.37,24.73,35.44,22.66,10.62-10.62,27.34,33.28,68.94,33.28,96.28,0-24.82,33.28-22.76,35.34,10.62,10.62-33.37,27.25-33.37,68.7,0,95.95-33.37-24.73-35.44-22.66-10.62,10.62Z"/><path class="cls-6" d="M97.9,108.7c-22.06-26.84-55.6-26.84-77.66,0,20.02-26.84,18.36-28.51-8.56-8.56,26.92-21.98,26.92-55.41,0-77.39,26.92,19.95,28.58,18.28,8.56-8.56,22.06,26.84,55.6,26.84,77.66,0-20.02,26.84-18.36,28.51,8.56,8.56-26.92,21.98-26.92,55.41,0,77.39-26.92-19.95-28.58-18.28-8.56,8.56Z"/><path class="cls-6" d="M88.33,97.05c-16.62-20.23-41.9-20.23-58.52,0,15.09-20.23,13.83-21.48-6.45-6.45,20.28-16.56,20.28-41.76,0-58.32,20.28,15.03,21.54,13.78,6.45-6.45,16.62,20.23,41.9,20.23,58.52,0-15.09,20.23-13.83,21.48,6.45,6.45-20.28,16.56-20.28,41.76,0,58.32-20.28-15.03-21.54-13.78-6.45,6.45Z"/><path class="cls-6" d="M80.71,87.77c-12.29-14.96-30.98-14.96-43.27,0,11.16-14.96,10.23-15.88-4.77-4.77,15-12.25,15-30.88,0-43.12,15,11.11,15.93,10.19,4.77-4.77,12.29,14.96,30.98,14.96,43.27,0-11.16,14.96-10.23,15.88,4.77,4.77-15,12.25-15,30.88,0,43.12-15-11.11-15.93-10.19-4.77,4.77Z"/><path class="cls-2" d="M27.38,128.23v3.05c0,.23-.19.42-.42.42s-.42-.19-.42-.42v-8.99c0-.28.2-.48.46-.48h4.62c1.74,0,3.08,1.29,3.08,2.97v.48c0,1.68-1.34,2.97-3.08,2.97h-4.25ZM33.88,124.78c0-1.22-.99-2.17-2.26-2.17h-4.23v4.82h4.23c1.28,0,2.26-.96,2.26-2.17v-.48Z"/><path class="cls-2" d="M43.08,126.91c0,.23-.18.42-.42.42s-.42-.18-.42-.42v-.72c0-1.11-.82-1.94-1.96-1.94h-3.37v7.04c0,.23-.19.42-.42.42s-.42-.19-.42-.42v-7.38c0-.26.18-.46.46-.46h3.74c1.6,0,2.79,1.19,2.79,2.74v.72Z"/><path class="cls-2" d="M46.05,131.6c-1.4,0-2.39-1.14-2.39-2.39s.99-2.37,2.39-2.37h3.48c.22,0,.4.19.4.4s-.18.4-.4.4h-3.48c-.92,0-1.55.77-1.55,1.57s.63,1.59,1.55,1.59h4.88v-4.48c0-1.26-.79-2.08-2.05-2.08h-4.02c-.22,0-.4-.18-.4-.4s.18-.4.4-.4h4.02c1.71,0,2.88,1.17,2.88,2.88v4.82c0,.28-.19.46-.46.46h-5.25Z"/><path class="cls-2" d="M57.02,131.6c-2.25,0-3.82-1.63-3.82-3.8v-.55c0-2.17,1.57-3.8,3.82-3.8h3.51c.22,0,.4.18.4.4s-.19.4-.4.4h-3.5c-1.77,0-3,1.29-3,3v.55c0,1.72,1.23,3,3,3h3.5c.22,0,.4.18.4.4s-.19.4-.4.4h-3.51Z"/><path class="cls-2" d="M66.21,131.6c-1.52,0-2.65-1.12-2.65-2.66v-4.7h-1.56c-.22,0-.4-.18-.4-.4s.19-.4.4-.4h1.56v-2.05c0-.23.18-.42.42-.42s.42.18.42.42v2.05h3.96c.22,0,.4.18.4.4s-.19.4-.4.4h-3.96v4.7c0,1.11.74,1.86,1.82,1.86h2.14c.22,0,.4.18.4.4s-.19.4-.4.4h-2.14Z"/><path class="cls-2" d="M69.79,120.76c0-.32.26-.58.58-.58s.58.26.58.58-.26.58-.58.58-.58-.26-.58-.58ZM69.96,123.77c0-.23.19-.42.42-.42s.42.18.42.42v7.51c0,.23-.18.42-.42.42s-.42-.19-.42-.42v-7.51Z"/><path class="cls-2" d="M76.11,131.6c-2.25,0-3.82-1.63-3.82-3.8v-.55c0-2.17,1.57-3.8,3.82-3.8h3.51c.22,0,.4.18.4.4s-.19.4-.4.4h-3.5c-1.77,0-3,1.29-3,3v.55c0,1.72,1.23,3,3,3h3.5c.22,0,.4.18.4.4s-.19.4-.4.4h-3.51Z"/><path class="cls-2" d="M84.57,131.6c-2.25,0-3.82-1.63-3.82-3.8v-.55c0-2.17,1.57-3.8,3.82-3.8h2.52c1.48,0,2.46,1.05,2.46,2.29s-.99,2.28-2.46,2.28h-3.65c-.22,0-.4-.19-.4-.4s.19-.4.4-.4h3.65c.99,0,1.63-.66,1.63-1.48s-.65-1.49-1.63-1.49h-2.51c-1.77,0-3,1.29-3,3v.55c0,1.72,1.23,3,3,3h3.9c.22,0,.4.18.4.4s-.19.4-.4.4h-3.91Z"/><path class="cls-2" d="M25.22,167.77s-1.38-.62-1.38-1.38v-8.24c0-1.14-.94-2.08-2.08-2.08h-6.92c-1.14,0-2.08.93-2.08,2.08v8.24c0,.76-.62,1.38-1.39,1.38,0,0-1.38-.62-1.38-1.38v-24.93c0-.76.62-1.39,1.38-1.39,0,0,1.39.62,1.39,1.39v4.15c0,1.14.93,2.08,2.08,2.08h6.92c1.14,0,2.08-.93,2.08-2.08v-4.15c0-.76.62-1.39,1.38-1.39,0,0,1.38.62,1.38,1.39v24.93c0,.76-.62,1.38-1.38,1.38Z"/><path class="cls-2" d="M43.67,167.77h-12.43c-1.14,0-2.08-.93-2.08-2.08v-23.47c0-1.14.93-2.04,2.08-2.04h12.43c1.14,0,2.04.9,2.04,2.04v23.47c0,1.14-.9,2.08-2.04,2.08ZM42.98,149.84c0-1.14-.94-2.08-2.08-2.08h-6.89c-1.14,0-2.08.93-2.08,2.08v13.09c0,1.18.93,2.08,2.08,2.08h6.89c1.14,0,2.08-.9,2.08-2.08v-13.09Z"/><path class="cls-2" d="M64.86,165.69c0,1.14-.93,2.08-2.08,2.08h-12.43c-1.14,0-2.08-.93-2.08-2.08v-24.17c0-.76.62-1.35,1.38-1.35,0,0,1.38.59,1.38,1.35v16.58c0,1.14.94,2.08,2.08,2.08h6.89c1.14,0,2.08-.93,2.08-2.08v-16.58c0-.76.62-1.35,1.38-1.35,0,0,1.38.59,1.38,1.35v24.17Z"/><path class="cls-2" d="M81.9,167.77h-13.12c-.76,0-1.38-.62-1.38-1.38s.62-1.38,1.38-1.38h5.5c1.14,0,2.08-.9,2.08-2.04v-6.27c0-1.14-.94-2.04-2.08-2.04l-4.81-.03c-1.14,0-2.08-.9-2.08-2.04v-10.35c0-1.14.93-2.04,2.08-2.04h10.49c.76,0,1.38.59,1.38,1.35s-.62,1.38-1.38,1.38h-7.76c-1.14,0-2.08.93-2.08,2.08v4.81c0,1.14.93,2.08,2.08,2.08h9.69c1.14,0,2.04.93,2.04,2.08v11.74c0,1.14-.9,2.08-2.04,2.08Z"/><path class="cls-2" d="M101.74,167.77h-13.16c-1.14,0-2.08-.93-2.08-2.08v-23.54c0-1.14.93-2.08,2.08-2.08h13.16c.76,0,1.38.62,1.38,1.39s-.62,1.38-1.38,1.38h-10.39c-1.14,0-2.08.93-2.08,2.08v6.23c0,1.14.94,2.08,2.08,2.08h10.39c.76,0,1.38.62,1.38,1.38s-.62,1.38-1.38,1.38h-5.54c-1.14,0-2.08.93-2.08,2.08v4.85c0,1.14.94,2.08,2.08,2.08h5.54c.76,0,1.38.62,1.38,1.38s-.62,1.38-1.38,1.38Z"/><path class="cls-2" d="M44.57,182.48c0-1.72-1.35-3.1-3.06-3.1h-3.28v9.5c0,.31-.25.56-.56.56s-.56-.25-.56-.56v-9.5h-6.26v9.5c0,.31-.25.56-.56.56s-.56-.25-.56-.56v-9.96c0-.35.25-.62.62-.62h11.16c2.33,0,4.18,1.85,4.18,4.18v6.4c0,.31-.25.56-.56.56s-.56-.25-.56-.56v-6.4Z"/><path class="cls-2" d="M52.42,189.31c-2.35,0-4.24-1.91-4.24-4.26v-6.32c0-.31.25-.56.56-.56s.56.25.56.56v6.34c0,1.72,1.39,3.16,3.12,3.16h1.89c1.72,0,3.14-1.43,3.14-3.16v-6.34c0-.31.25-.56.56-.56s.56.25.56.56v6.32c0,2.35-1.91,4.26-4.26,4.26h-1.89Z"/><path class="cls-2" d="M61.37,189.31c-.29,0-.54-.25-.54-.54s.25-.54.54-.54h6.4c1.21,0,2.08-.83,2.08-1.95s-.87-1.93-2.08-1.93h-4.07c-1.83,0-3.18-1.29-3.18-2.99s1.35-3.05,3.18-3.05h6.42c.29,0,.54.25.54.54s-.25.54-.54.54h-6.42c-1.18,0-2.06.85-2.06,1.97s.87,1.91,2.06,1.91h4.07c1.85,0,3.18,1.31,3.18,3.01s-1.33,3.03-3.18,3.03h-6.4Z"/><path class="cls-2" d="M72.73,174.68c0-.44.35-.79.79-.79s.79.35.79.79-.35.79-.79.79-.79-.35-.79-.79ZM72.96,178.74c0-.31.25-.56.56-.56s.56.25.56.56v10.14c0,.31-.25.56-.56.56s-.56-.25-.56-.56v-10.14Z"/><path class="cls-2" d="M81.25,189.31c-3.03,0-5.15-2.2-5.15-5.13v-.75c0-2.93,2.12-5.13,5.15-5.13h4.74c.29,0,.54.25.54.54s-.25.54-.54.54h-4.72c-2.39,0-4.05,1.75-4.05,4.05v.75c0,2.33,1.66,4.05,4.05,4.05h4.72c.29,0,.54.25.54.54s-.25.54-.54.54h-4.74Z"/></svg>